<svg id="Layer_1" data-name="Layer 1" xmlns="http://www.w3.org/2000/svg" viewBox="0 0 664.69 165.84"><defs><style>.cls-1{fill:#fff;}.cls-2{fill:none;stroke:#fff;stroke-linecap:round;stroke-linejoin:round;stroke-width:10px;}</style></defs><title>NBTC Theme Logos - Light</title><path id="_Compound_Path_" data-name="&lt;Compound Path&gt;" class="cls-1" d="M222.07,373.63v18.71h-5.69V373.63h-6.66v-4.87h19v4.87h-6.66Z" transform="translate(-16.39 -228.79)"/><path id="_Compound_Path_2" data-name="&lt;Compound Path&gt;" class="cls-1" d="M230.49,392.34V368.77h15.86v4.79H236V378h9.79v4.56H236v4.9h11v4.85H230.49Z" transform="translate(-16.39 -228.79)"/><path id="_Compound_Path_3" data-name="&lt;Compound Path&gt;" class="cls-1" d="M266.8,391.93a12.67,12.67,0,0,1-5.29,1,13.87,13.87,0,0,1-5.05-.9,11.67,11.67,0,0,1-6.67-6.5,13.78,13.78,0,0,1,0-10.19,11.36,11.36,0,0,1,2.71-3.91,12.15,12.15,0,0,1,4.06-2.49,14.44,14.44,0,0,1,5-.86,14.3,14.3,0,0,1,4.92.88,9.35,9.35,0,0,1,3.91,2.58l-3.87,3.87a4.75,4.75,0,0,0-2.09-1.64,7.1,7.1,0,0,0-2.66-.52,6.84,6.84,0,0,0-2.75.55,6.44,6.44,0,0,0-2.15,1.51,6.94,6.94,0,0,0-1.4,2.29,8,8,0,0,0-.5,2.88,8.27,8.27,0,0,0,.5,2.94,6.89,6.89,0,0,0,1.38,2.28,6.3,6.3,0,0,0,2.12,1.48,6.62,6.62,0,0,0,2.7.54,6.25,6.25,0,0,0,3-.67,5.51,5.51,0,0,0,2-1.73l4,3.73A11.15,11.15,0,0,1,266.8,391.93Z" transform="translate(-16.39 -228.79)"/><path id="_Compound_Path_4" data-name="&lt;Compound Path&gt;" class="cls-1" d="M287.15,392.34v-9.86H278v9.86h-5.69V368.77H278v8.92h9.19v-8.92h5.7v23.57h-5.7Z" transform="translate(-16.39 -228.79)"/><path id="_Compound_Path_5" data-name="&lt;Compound Path&gt;" class="cls-1" d="M311.9,392.34l-9.49-15.42h-0.1l0.14,15.42h-5.53V368.77h6.49l9.46,15.38H313l-0.14-15.38h5.53v23.57H311.9Z" transform="translate(-16.39 -228.79)"/><path id="_Compound_Path_6" data-name="&lt;Compound Path&gt;" class="cls-1" d="M347,380.45a13.09,13.09,0,0,1-1,5.12,11.53,11.53,0,0,1-2.68,4,12,12,0,0,1-4.08,2.55,14.39,14.39,0,0,1-5.13.9,14.18,14.18,0,0,1-5.11-.9,12,12,0,0,1-4.06-2.55,11.64,11.64,0,0,1-2.68-4,13.21,13.21,0,0,1-1-5.12,13,13,0,0,1,1-5.12,11.15,11.15,0,0,1,2.68-3.87A11.81,11.81,0,0,1,329,369a14.75,14.75,0,0,1,5.11-.86,15,15,0,0,1,5.13.86,11.81,11.81,0,0,1,4.08,2.48,11,11,0,0,1,2.68,3.87A12.92,12.92,0,0,1,347,380.45Zm-6.09,0a8.13,8.13,0,0,0-.5-2.86,6.72,6.72,0,0,0-1.38-2.28,6.47,6.47,0,0,0-2.13-1.51,6.83,6.83,0,0,0-2.75-.55,6.69,6.69,0,0,0-2.73.55,6.76,6.76,0,0,0-2.13,1.51,6.44,6.44,0,0,0-1.38,2.28,8.27,8.27,0,0,0-.48,2.86,8.37,8.37,0,0,0,.5,2.95,7,7,0,0,0,1.38,2.32,6.14,6.14,0,0,0,2.12,1.51,6.94,6.94,0,0,0,5.46,0,6.4,6.4,0,0,0,2.13-1.51,6.88,6.88,0,0,0,1.4-2.32A8.52,8.52,0,0,0,340.91,380.45Z" transform="translate(-16.39 -228.79)"/><path id="_Compound_Path_7" data-name="&lt;Compound Path&gt;" class="cls-1" d="M350,392.34V368.77h5.72v18.62h9.13v5H350Z" transform="translate(-16.39 -228.79)"/><path id="_Compound_Path_8" data-name="&lt;Compound Path&gt;" class="cls-1" d="M391.28,380.45a13.09,13.09,0,0,1-1,5.12,11.51,11.51,0,0,1-2.68,4,11.91,11.91,0,0,1-4.07,2.55,14.36,14.36,0,0,1-5.13.9,14.22,14.22,0,0,1-5.12-.9,12,12,0,0,1-4.06-2.55,11.51,11.51,0,0,1-2.68-4,13.23,13.23,0,0,1-1-5.12,13.05,13.05,0,0,1,1-5.12,11,11,0,0,1,2.68-3.87A11.8,11.8,0,0,1,373.3,369a14.79,14.79,0,0,1,5.12-.86,15,15,0,0,1,5.13.86,11.74,11.74,0,0,1,4.07,2.48,11,11,0,0,1,2.68,3.87A12.92,12.92,0,0,1,391.28,380.45Zm-6.1,0a8.13,8.13,0,0,0-.5-2.86,6.82,6.82,0,0,0-1.38-2.28,6.48,6.48,0,0,0-2.13-1.51,6.81,6.81,0,0,0-2.74-.55,6.74,6.74,0,0,0-2.74.55,6.66,6.66,0,0,0-2.13,1.51,6.43,6.43,0,0,0-1.38,2.28,8.25,8.25,0,0,0-.49,2.86,8.52,8.52,0,0,0,.5,2.95,6.93,6.93,0,0,0,1.38,2.32,6.12,6.12,0,0,0,2.11,1.51,7,7,0,0,0,5.47,0,6.45,6.45,0,0,0,2.13-1.51,6.88,6.88,0,0,0,1.4-2.32A8.52,8.52,0,0,0,385.18,380.45Z" transform="translate(-16.39 -228.79)"/><path id="_Compound_Path_9" data-name="&lt;Compound Path&gt;" class="cls-1" d="M411.14,392.38a21.48,21.48,0,0,1-5,.56,14.68,14.68,0,0,1-5.21-.9,12,12,0,0,1-4.09-2.53,11.73,11.73,0,0,1-2.69-3.92,13.92,13.92,0,0,1,0-10.21,11.27,11.27,0,0,1,2.72-3.91A12,12,0,0,1,400.9,369a14.42,14.42,0,0,1,5-.86,15.25,15.25,0,0,1,5.2.85,11,11,0,0,1,3.9,2.28l-3.6,4.1a6.61,6.61,0,0,0-2.2-1.58,7.63,7.63,0,0,0-3.09-.61,6.76,6.76,0,0,0-2.77.55,6.58,6.58,0,0,0-2.19,1.53,7,7,0,0,0-1.46,2.33,8.31,8.31,0,0,0-.52,3,9.16,9.16,0,0,0,.47,3,6.52,6.52,0,0,0,1.38,2.35,6.34,6.34,0,0,0,2.26,1.53,8.27,8.27,0,0,0,3.09.55,11.69,11.69,0,0,0,1.89-.15,7,7,0,0,0,1.67-.49V383h-4.49v-4.59h9.72v12.48A17.39,17.39,0,0,1,411.14,392.38Z" transform="translate(-16.39 -228.79)"/><path id="_Compound_Path_10" data-name="&lt;Compound Path&gt;" class="cls-1" d="M430.51,382.36v10h-5.69v-10L416,368.77h6.9l5,8.73,5-8.73h6.66Z" transform="translate(-16.39 -228.79)"/><path id="_Compound_Path_11" data-name="&lt;Compound Path&gt;" class="cls-1" d="M464.95,391.93a12.66,12.66,0,0,1-5.29,1,13.9,13.9,0,0,1-5.05-.9,11.84,11.84,0,0,1-4-2.55,11.71,11.71,0,0,1-2.66-3.95,13.77,13.77,0,0,1,0-10.19,11.46,11.46,0,0,1,2.71-3.91,12.14,12.14,0,0,1,4.07-2.49,14.49,14.49,0,0,1,5-.86,14.3,14.3,0,0,1,4.91.88,9.35,9.35,0,0,1,3.91,2.58l-3.86,3.87a4.79,4.79,0,0,0-2.1-1.64,7.1,7.1,0,0,0-2.66-.52,6.84,6.84,0,0,0-2.75.55,6.42,6.42,0,0,0-2.15,1.51,6.89,6.89,0,0,0-1.4,2.29,8.18,8.18,0,0,0-.5,2.88,8.42,8.42,0,0,0,.5,2.94,7,7,0,0,0,1.38,2.28,6.25,6.25,0,0,0,2.12,1.48,6.64,6.64,0,0,0,2.7.54,6.24,6.24,0,0,0,3-.67,5.54,5.54,0,0,0,2-1.73l4,3.73A11.08,11.08,0,0,1,464.95,391.93Z" transform="translate(-16.39 -228.79)"/><path id="_Compound_Path_12" data-name="&lt;Compound Path&gt;" class="cls-1" d="M495,380.45a13.21,13.21,0,0,1-1,5.12,11.54,11.54,0,0,1-2.68,4,12,12,0,0,1-4.08,2.55,15.07,15.07,0,0,1-10.24,0,12,12,0,0,1-4.06-2.55,11.43,11.43,0,0,1-2.67-4,13,13,0,0,1-1-5.12,12.81,12.81,0,0,1,1-5.12,11,11,0,0,1,2.67-3.87A11.82,11.82,0,0,1,477,369a15.69,15.69,0,0,1,10.24,0,11.8,11.8,0,0,1,4.08,2.48,11.07,11.07,0,0,1,2.68,3.87A13,13,0,0,1,495,380.45Zm-6.09,0a8,8,0,0,0-.5-2.86,6.72,6.72,0,0,0-1.38-2.28,6.41,6.41,0,0,0-2.13-1.51,6.86,6.86,0,0,0-2.75-.55,6.52,6.52,0,0,0-4.86,2.05,6.46,6.46,0,0,0-1.38,2.28,8.45,8.45,0,0,0-.48,2.86,8.55,8.55,0,0,0,.5,2.95,7.17,7.17,0,0,0,1.39,2.32,6.13,6.13,0,0,0,2.11,1.51,6.95,6.95,0,0,0,5.46,0,6.32,6.32,0,0,0,2.13-1.51,7,7,0,0,0,1.39-2.32A8.4,8.4,0,0,0,488.9,380.45Z" transform="translate(-16.39 -228.79)"/><path id="_Compound_Path_13" data-name="&lt;Compound Path&gt;" class="cls-1" d="M512.95,392.34l-9.49-15.42h-0.1l0.13,15.42H498V368.77h6.5l9.46,15.38H514l-0.13-15.38h5.53v23.57h-6.46Z" transform="translate(-16.39 -228.79)"/><path id="_Compound_Path_14" data-name="&lt;Compound Path&gt;" class="cls-1" d="M529.07,373.63v4.85h9.12v4.7h-9.12v9.15h-5.63V368.77H539v4.87h-9.89Z" transform="translate(-16.39 -228.79)"/><path id="_Compound_Path_15" data-name="&lt;Compound Path&gt;" class="cls-1" d="M541.83,392.34V368.77h15.85v4.79H547.32V378h9.79v4.56h-9.79v4.9h11v4.85H541.83Z" transform="translate(-16.39 -228.79)"/><path id="_Compound_Path_16" data-name="&lt;Compound Path&gt;" class="cls-1" d="M573.83,392.34L568.71,383h-1.94v9.35h-5.56V368.77h9a15.43,15.43,0,0,1,3.31.35,8.36,8.36,0,0,1,2.9,1.18,6.17,6.17,0,0,1,2,2.19,6.9,6.9,0,0,1,.76,3.4,6.31,6.31,0,0,1-1.29,4,7.11,7.11,0,0,1-3.6,2.34l6.16,10.08h-6.66ZM573.6,376a2.39,2.39,0,0,0-.36-1.34,2.36,2.36,0,0,0-.91-0.8,3.57,3.57,0,0,0-1.24-.39,10,10,0,0,0-1.32-.1h-3v5.5h2.71a9.67,9.67,0,0,0,1.44-.12,4.1,4.1,0,0,0,1.33-.42,2.45,2.45,0,0,0,1-.86A2.62,2.62,0,0,0,573.6,376Z" transform="translate(-16.39 -228.79)"/><path id="_Compound_Path_17" data-name="&lt;Compound Path&gt;" class="cls-1" d="M582.49,392.34V368.77h15.86v4.79H588V378h9.79v4.56H588v4.9h11v4.85H582.49Z" transform="translate(-16.39 -228.79)"/><path id="_Compound_Path_18" data-name="&lt;Compound Path&gt;" class="cls-1" d="M616.9,392.34l-9.49-15.42h-0.1l0.13,15.42h-5.53V368.77h6.49l9.46,15.38H618l-0.13-15.38h5.53v23.57H616.9Z" transform="translate(-16.39 -228.79)"/><path id="_Compound_Path_19" data-name="&lt;Compound Path&gt;" class="cls-1" d="M644.31,391.93a12.66,12.66,0,0,1-5.29,1,13.86,13.86,0,0,1-5.06-.9,11.94,11.94,0,0,1-4-2.55,11.77,11.77,0,0,1-2.66-3.95,13.78,13.78,0,0,1,0-10.19,11.29,11.29,0,0,1,2.71-3.91,12.14,12.14,0,0,1,4.07-2.49,14.43,14.43,0,0,1,5-.86A14.25,14.25,0,0,1,644,369a9.36,9.36,0,0,1,3.92,2.58l-3.87,3.87a4.75,4.75,0,0,0-2.09-1.64,7.12,7.12,0,0,0-2.66-.52,6.84,6.84,0,0,0-2.75.55,6.42,6.42,0,0,0-2.15,1.51,6.78,6.78,0,0,0-1.4,2.29,8,8,0,0,0-.5,2.88,8.27,8.27,0,0,0,.5,2.94,6.75,6.75,0,0,0,1.38,2.28,6.25,6.25,0,0,0,2.12,1.48,6.61,6.61,0,0,0,2.69.54,6.24,6.24,0,0,0,3-.67,5.58,5.58,0,0,0,2-1.73l4,3.73A11.12,11.12,0,0,1,644.31,391.93Z" transform="translate(-16.39 -228.79)"/><path id="_Compound_Path_20" data-name="&lt;Compound Path&gt;" class="cls-1" d="M649.78,392.34V368.77h15.86v4.79H655.27V378h9.79v4.56h-9.79v4.9h11v4.85H649.78Z" transform="translate(-16.39 -228.79)"/><path id="_Compound_Path_21" data-name="&lt;Compound Path&gt;" class="cls-1" d="M225.85,356.08l-10.13-16.45h-0.11l0.14,16.45h-5.91V330.92h6.94l10.1,16.43H227l-0.14-16.43h5.9v25.17h-6.9Z" transform="translate(-16.39 -228.79)"/><path id="_Compound_Path_22" data-name="&lt;Compound Path&gt;" class="cls-1" d="M255,356.08l-2-4.94H243.3l-1.84,4.94h-6.62l10.56-25.17h5.9l10.45,25.17H255Zm-6.75-18.45-3.2,8.64h6.32Z" transform="translate(-16.39 -228.79)"/><path id="_Compound_Path_23" data-name="&lt;Compound Path&gt;" class="cls-1" d="M273.21,336.11v20h-6.09v-20H260v-5.19h20.3v5.19h-7.11Z" transform="translate(-16.39 -228.79)"/><path id="_Compound_Path_24" data-name="&lt;Compound Path&gt;" class="cls-1" d="M283.8,356.08V330.92h6.12v25.17H283.8Z" transform="translate(-16.39 -228.79)"/><path id="_Compound_Path_25" data-name="&lt;Compound Path&gt;" class="cls-1" d="M320.63,343.39a14,14,0,0,1-1,5.46,12.57,12.57,0,0,1-2.86,4.23,12.76,12.76,0,0,1-4.36,2.71,16.08,16.08,0,0,1-10.94,0,12.71,12.71,0,0,1-4.33-2.71,12.41,12.41,0,0,1-2.86-4.23,14,14,0,0,1-1-5.46,13.85,13.85,0,0,1,1-5.45,12.05,12.05,0,0,1,2.86-4.14,12.72,12.72,0,0,1,4.33-2.63,16.7,16.7,0,0,1,10.94,0,12.78,12.78,0,0,1,4.36,2.63,12.2,12.2,0,0,1,2.86,4.14A13.84,13.84,0,0,1,320.63,343.39Zm-6.5,0a8.79,8.79,0,0,0-.54-3,7.29,7.29,0,0,0-1.48-2.44,6.72,6.72,0,0,0-2.27-1.59,7.09,7.09,0,0,0-2.93-.58,6.9,6.9,0,0,0-6.67,4.62,9.38,9.38,0,0,0,0,6.2,7.44,7.44,0,0,0,1.48,2.48,7,7,0,0,0,2.26,1.62,7.57,7.57,0,0,0,5.83,0A7.08,7.08,0,0,0,312.1,349a7.37,7.37,0,0,0,1.49-2.48A9.16,9.16,0,0,0,314.13,343.39Z" transform="translate(-16.39 -228.79)"/><path id="_Compound_Path_26" data-name="&lt;Compound Path&gt;" class="cls-1" d="M340.65,356.08l-10.13-16.45h-0.11l0.14,16.45h-5.9V330.92h6.93l10.1,16.43h0.11l-0.14-16.43h5.9v25.17h-6.9Z" transform="translate(-16.39 -228.79)"/><path id="_Compound_Path_27" data-name="&lt;Compound Path&gt;" class="cls-1" d="M369.8,356.08l-2-4.94h-9.74l-1.85,4.94h-6.62l10.57-25.17h5.9l10.46,25.17H369.8ZM363,337.64l-3.2,8.64h6.34Z" transform="translate(-16.39 -228.79)"/><path id="_Compound_Path_28" data-name="&lt;Compound Path&gt;" class="cls-1" d="M378.65,356.08V330.92h6.12v19.88h9.74v5.29H378.65Z" transform="translate(-16.39 -228.79)"/><path id="_Compound_Path_29" data-name="&lt;Compound Path&gt;" class="cls-1" d="M427.29,348.77a6.91,6.91,0,0,1-.81,3.47,6.6,6.6,0,0,1-2.17,2.25,9.41,9.41,0,0,1-3.08,1.22,16.66,16.66,0,0,1-3.53.37h-10V330.92h10a15.58,15.58,0,0,1,3,.3,8.82,8.82,0,0,1,2.78,1,5.82,5.82,0,0,1,2,2,5.75,5.75,0,0,1,.78,3.16,5.21,5.21,0,0,1-1.13,3.46,6.36,6.36,0,0,1-3,2v0.07a6.86,6.86,0,0,1,2,.65,5.71,5.71,0,0,1,1.64,1.23,5.54,5.54,0,0,1,1.1,1.74A5.82,5.82,0,0,1,427.29,348.77Zm-6.9-10.57a2,2,0,0,0-1-1.87,5.78,5.78,0,0,0-2.9-.59h-3v5.19h3.27a4.42,4.42,0,0,0,2.65-.68A2.38,2.38,0,0,0,420.4,338.2Zm0.82,10A2.22,2.22,0,0,0,420,346a6.76,6.76,0,0,0-3.13-.61h-3.38v5.76H417a8.61,8.61,0,0,0,1.47-.12,4.8,4.8,0,0,0,1.39-.43,2.75,2.75,0,0,0,1-.92A2.64,2.64,0,0,0,421.22,348.19Z" transform="translate(-16.39 -228.79)"/><path id="_Compound_Path_30" data-name="&lt;Compound Path&gt;" class="cls-1" d="M451.88,350.74a9.06,9.06,0,0,1-2.18,3.19,9.83,9.83,0,0,1-3.43,2.08,13.74,13.74,0,0,1-8.94,0,9.38,9.38,0,0,1-3.38-2.08,9,9,0,0,1-2.13-3.19,11.11,11.11,0,0,1-.75-4.14V330.92h6v15.17a7.23,7.23,0,0,0,.27,2,4.72,4.72,0,0,0,.82,1.64,3.63,3.63,0,0,0,1.46,1.16,5.69,5.69,0,0,0,4.37,0,3.85,3.85,0,0,0,1.47-1.16,4.43,4.43,0,0,0,.82-1.64,7.23,7.23,0,0,0,.25-2V330.92h6.08V346.6A10.88,10.88,0,0,1,451.88,350.74Z" transform="translate(-16.39 -228.79)"/><path id="_Compound_Path_31" data-name="&lt;Compound Path&gt;" class="cls-1" d="M470.85,337.45a5.35,5.35,0,0,0-2-1.57,5.66,5.66,0,0,0-2.43-.6,6.92,6.92,0,0,0-1.23.11,2.8,2.8,0,0,0-1.12.41,2.63,2.63,0,0,0-.83.78,2.05,2.05,0,0,0-.34,1.22,2,2,0,0,0,.26,1.07,2.36,2.36,0,0,0,.78.75,7.27,7.27,0,0,0,1.23.59c0.46,0.17,1,.36,1.59.55,0.86,0.29,1.74.6,2.66,0.95a9.61,9.61,0,0,1,2.53,1.37,6.9,6.9,0,0,1,1.88,2.12,6.06,6.06,0,0,1,.75,3.15,8.21,8.21,0,0,1-.8,3.75,7.5,7.5,0,0,1-2.15,2.61,9.3,9.3,0,0,1-3.09,1.53,13.38,13.38,0,0,1-3.6.5,14.73,14.73,0,0,1-5.23-.95,10.89,10.89,0,0,1-4.19-2.69l4-4a7.35,7.35,0,0,0,2.43,1.9,6.76,6.76,0,0,0,3,.76,5.78,5.78,0,0,0,1.32-.15,2.93,2.93,0,0,0,1.12-.46,2.24,2.24,0,0,0,.77-0.85,2.69,2.69,0,0,0,.28-1.28,2,2,0,0,0-.35-1.21,3.45,3.45,0,0,0-1-.91,8.24,8.24,0,0,0-1.64-.75l-2.23-.73a19.14,19.14,0,0,1-2.36-.92,7.86,7.86,0,0,1-2.05-1.37,6.12,6.12,0,0,1-1.46-2,6.82,6.82,0,0,1-.55-2.9,7.08,7.08,0,0,1,.86-3.58,7.29,7.29,0,0,1,2.24-2.45,9.74,9.74,0,0,1,3.13-1.41,14.05,14.05,0,0,1,3.52-.43,13,13,0,0,1,4.36.77,11.25,11.25,0,0,1,3.9,2.32Z" transform="translate(-16.39 -228.79)"/><path id="_Compound_Path_32" data-name="&lt;Compound Path&gt;" class="cls-1" d="M478.56,356.08V330.92h6.12v25.17h-6.12Z" transform="translate(-16.39 -228.79)"/><path id="_Compound_Path_33" data-name="&lt;Compound Path&gt;" class="cls-1" d="M505.87,356.08l-10.13-16.45h-0.11l0.14,16.45h-5.91V330.92h6.93l10.1,16.43H507l-0.14-16.43h5.9v25.17h-6.9Z" transform="translate(-16.39 -228.79)"/><path id="_Compound_Path_34" data-name="&lt;Compound Path&gt;" class="cls-1" d="M518,356.08V330.92h16.93V336H523.83v4.77h10.45v4.87H523.83v5.23h11.69v5.19H518Z" transform="translate(-16.39 -228.79)"/><path id="_Compound_Path_35" data-name="&lt;Compound Path&gt;" class="cls-1" d="M552.84,337.45a5.43,5.43,0,0,0-2-1.57,5.65,5.65,0,0,0-2.43-.6,7,7,0,0,0-1.23.11,2.89,2.89,0,0,0-1.12.41,2.65,2.65,0,0,0-.83.78,2.05,2.05,0,0,0-.34,1.22,2,2,0,0,0,.26,1.07,2.38,2.38,0,0,0,.78.75,7.7,7.7,0,0,0,1.23.59c0.47,0.17,1,.36,1.6.55,0.85,0.29,1.74.6,2.67,0.95a9.65,9.65,0,0,1,2.52,1.37,7.1,7.1,0,0,1,1.89,2.12,6.19,6.19,0,0,1,.75,3.15,8.29,8.29,0,0,1-.8,3.75,7.55,7.55,0,0,1-2.15,2.61,9.39,9.39,0,0,1-3.09,1.53,13.28,13.28,0,0,1-3.58.5,14.76,14.76,0,0,1-5.24-.95,10.94,10.94,0,0,1-4.2-2.69l4-4a7.45,7.45,0,0,0,2.44,1.9,6.74,6.74,0,0,0,3,.76,5.72,5.72,0,0,0,1.31-.15,2.92,2.92,0,0,0,1.12-.46,2.24,2.24,0,0,0,.77-0.85,2.66,2.66,0,0,0,.28-1.28,2,2,0,0,0-.35-1.21,3.53,3.53,0,0,0-1-.91,8.07,8.07,0,0,0-1.64-.75l-2.22-.73a18.49,18.49,0,0,1-2.36-.92,7.9,7.9,0,0,1-2.06-1.37,6,6,0,0,1-1.46-2,6.85,6.85,0,0,1-.55-2.9,7.08,7.08,0,0,1,.85-3.58,7.45,7.45,0,0,1,2.24-2.45,9.81,9.81,0,0,1,3.12-1.41,14.15,14.15,0,0,1,3.52-.43,13,13,0,0,1,4.36.77,11.21,11.21,0,0,1,3.9,2.32Z" transform="translate(-16.39 -228.79)"/><path id="_Compound_Path_36" data-name="&lt;Compound Path&gt;" class="cls-1" d="M573.85,337.45a5.47,5.47,0,0,0-2-1.57,5.64,5.64,0,0,0-2.43-.6,7,7,0,0,0-1.23.11,2.88,2.88,0,0,0-1.12.41,2.77,2.77,0,0,0-.83.78,2.05,2.05,0,0,0-.34,1.22,2,2,0,0,0,.27,1.07,2.24,2.24,0,0,0,.78.75,7.76,7.76,0,0,0,1.22.59c0.47,0.17,1,.36,1.59.55,0.86,0.29,1.74.6,2.67,0.95a9.51,9.51,0,0,1,2.52,1.37,7.08,7.08,0,0,1,1.89,2.12,6.12,6.12,0,0,1,.75,3.15,8.21,8.21,0,0,1-.8,3.75,7.63,7.63,0,0,1-2.15,2.61,9.36,9.36,0,0,1-3.1,1.53,13.28,13.28,0,0,1-3.59.5,14.68,14.68,0,0,1-5.23-.95,10.9,10.9,0,0,1-4.2-2.69l4-4a7.25,7.25,0,0,0,2.43,1.9,6.79,6.79,0,0,0,3,.76,5.82,5.82,0,0,0,1.31-.15,3,3,0,0,0,1.12-.46,2.23,2.23,0,0,0,.76-0.85,2.69,2.69,0,0,0,.29-1.28,2,2,0,0,0-.36-1.21,3.32,3.32,0,0,0-1-.91,7.73,7.73,0,0,0-1.64-.75l-2.21-.73a18.12,18.12,0,0,1-2.37-.92,8.08,8.08,0,0,1-2.06-1.37,6.16,6.16,0,0,1-1.45-2,6.72,6.72,0,0,1-.55-2.9,7.08,7.08,0,0,1,.85-3.58,7.43,7.43,0,0,1,2.24-2.45,9.8,9.8,0,0,1,3.13-1.41,14.09,14.09,0,0,1,3.52-.43,13,13,0,0,1,4.36.77,11.16,11.16,0,0,1,3.9,2.32Z" transform="translate(-16.39 -228.79)"/><path id="_Compound_Path_37" data-name="&lt;Compound Path&gt;" class="cls-1" d="M607.51,356.08l-1.95-4.94h-9.74L594,356.08h-6.62l10.55-25.17h5.91l10.45,25.17h-6.76Zm-6.75-18.45-3.2,8.64h6.33Z" transform="translate(-16.39 -228.79)"/><path id="_Compound_Path_38" data-name="&lt;Compound Path&gt;" class="cls-1" d="M632.37,356.08l-10.14-16.45h-0.11l0.14,16.45h-5.91V330.92h6.93l10.1,16.43h0.1l-0.14-16.43h5.9v25.17h-6.9Z" transform="translate(-16.39 -228.79)"/><path id="_Compound_Path_39" data-name="&lt;Compound Path&gt;" class="cls-1" d="M668,343.43a12.42,12.42,0,0,1-1.23,5.71,11.46,11.46,0,0,1-3.24,3.95,13.37,13.37,0,0,1-4.53,2.28,18.38,18.38,0,0,1-5.12.72h-9.39V330.92h9.1a21.92,21.92,0,0,1,5.26.62,12.91,12.91,0,0,1,4.62,2.07,10.56,10.56,0,0,1,3.27,3.85A13,13,0,0,1,668,343.43Zm-6.33,0a8,8,0,0,0-.69-3.53,6,6,0,0,0-1.85-2.24,7.35,7.35,0,0,0-2.63-1.18,12.42,12.42,0,0,0-3-.36h-3v14.71h2.88a13.07,13.07,0,0,0,3.15-.36,7.59,7.59,0,0,0,2.66-1.23,6.07,6.07,0,0,0,1.85-2.28A8,8,0,0,0,661.63,343.43Z" transform="translate(-16.39 -228.79)"/><g id="_Group_" data-name="&lt;Group&gt;"><path id="_Compound_Path_40" data-name="&lt;Compound Path&gt;" class="cls-1" d="M211.27,230.95H236.7l36.1,59H273v-59h18.71v84.92H267.28l-37.06-60.45H230v60.45H211.27V230.95Z" transform="translate(-16.39 -228.79)"/><path id="_Compound_Path_41" data-name="&lt;Compound Path&gt;" class="cls-1" d="M303,230.95h31.66a80.19,80.19,0,0,1,11.09.78,30.34,30.34,0,0,1,10,3.12,19.2,19.2,0,0,1,7.2,6.54q2.76,4.2,2.76,11.15a17.81,17.81,0,0,1-4,11.93,22.09,22.09,0,0,1-10.62,6.78v0.24a24.28,24.28,0,0,1,7.62,2.34,20.35,20.35,0,0,1,5.88,4.44,18.93,18.93,0,0,1,3.78,6.3,22.14,22.14,0,0,1,1.32,7.68,20.41,20.41,0,0,1-2.88,11.21,22.63,22.63,0,0,1-7.44,7.26,32.56,32.56,0,0,1-10.26,4,54.84,54.84,0,0,1-11.33,1.2H303V230.95Zm18.71,33.94h13.55a19,19,0,0,0,4.26-.48,11.77,11.77,0,0,0,3.78-1.56A8.12,8.12,0,0,0,346,260a8.64,8.64,0,0,0,1-4.32,7.84,7.84,0,0,0-1.14-4.38,8,8,0,0,0-2.94-2.7,14.06,14.06,0,0,0-4.08-1.38,24.53,24.53,0,0,0-4.44-.42H321.74v18.11Zm0,35.14h16.79a20.64,20.64,0,0,0,4.38-.48,11.56,11.56,0,0,0,4-1.68,9.54,9.54,0,0,0,2.94-3.12,9,9,0,0,0,1.14-4.68,7.51,7.51,0,0,0-1.5-4.86,9.54,9.54,0,0,0-3.78-2.82,19.42,19.42,0,0,0-4.92-1.32,36.58,36.58,0,0,0-4.92-.36H321.74V300Z" transform="translate(-16.39 -228.79)"/><path id="_Compound_Path_42" data-name="&lt;Compound Path&gt;" class="cls-1" d="M391.18,247.5H367V230.95h67.17V247.5H409.89v68.37H391.18V247.5Z" transform="translate(-16.39 -228.79)"/><path id="_Compound_Path_43" data-name="&lt;Compound Path&gt;" class="cls-1" d="M493.13,253a18.4,18.4,0,0,0-6.78-5.16,22.56,22.56,0,0,0-9.3-1.8,23.26,23.26,0,0,0-17.57,7.74,26.51,26.51,0,0,0-5.16,8.7,33.15,33.15,0,0,0,0,21.89,27.26,27.26,0,0,0,5.1,8.64,23.05,23.05,0,0,0,7.62,5.7,22,22,0,0,0,9.42,2,21.09,21.09,0,0,0,10.19-2.4,20.31,20.31,0,0,0,7.32-6.72l15.59,11.63a32.48,32.48,0,0,1-13.67,11.15,42.32,42.32,0,0,1-17,3.6,52.31,52.31,0,0,1-18.35-3.12A42,42,0,0,1,446,306a40.51,40.51,0,0,1-9.53-14.09,51.61,51.61,0,0,1,0-36.94A40.52,40.52,0,0,1,446,240.84a42,42,0,0,1,14.51-8.94,52.32,52.32,0,0,1,18.35-3.12,45.07,45.07,0,0,1,7.5.66,40.65,40.65,0,0,1,7.68,2.1,34.31,34.31,0,0,1,7.26,3.84,28.92,28.92,0,0,1,6.24,5.88Z" transform="translate(-16.39 -228.79)"/></g><polygon id="_Path_" data-name="&lt;Path&gt;" class="cls-1" points="518.34 2.28 534.4 2.28 534.4 20.18 518.34 30.99 518.34 2.28"/><g id="_Group_2" data-name="&lt;Group&gt;"><path id="_Compound_Path_44" data-name="&lt;Compound Path&gt;" class="cls-1" d="M587,251.1l-17,15-10.2-11.75,27.71-23.39h16.79v84.92H587V251.1Z" transform="translate(-16.39 -228.79)"/><path id="_Compound_Path_45" data-name="&lt;Compound Path&gt;" class="cls-1" d="M660.93,247.5h-42V230.95h62.13v15.83l-33.94,69.09h-21Z" transform="translate(-16.39 -228.79)"/></g><g id="_Group_3" data-name="&lt;Group&gt;"><path id="_Path_2" data-name="&lt;Path&gt;" class="cls-2" d="M21.6,305.37a73.55,73.55,0,0,1,9.47-31.14l18.3,11.06" transform="translate(-16.39 -228.79)"/><path id="_Path_3" data-name="&lt;Path&gt;" class="cls-2" d="M29.05,344.86a78.64,78.64,0,0,1-7.45-39.49" transform="translate(-16.39 -228.79)"/><path id="_Path_4" data-name="&lt;Path&gt;" class="cls-2" d="M152.88,367.2a76.31,76.31,0,0,1-108.07,0" transform="translate(-16.39 -228.79)"/><path id="_Path_5" data-name="&lt;Path&gt;" class="cls-2" d="M58.71,246.68a76.34,76.34,0,0,1,92.14,12.25,79.68,79.68,0,0,1,23.42,55.87" transform="translate(-16.39 -228.79)"/><g id="_Group_4" data-name="&lt;Group&gt;"><path id="_Path_6" data-name="&lt;Path&gt;" class="cls-2" d="M72.15,361.71a55.18,55.18,0,0,1-12.34-9.34C38.28,330.73,36.36,295.66,57.89,274a54.94,54.94,0,0,1,78,0" transform="translate(-16.39 -228.79)"/><path id="_Path_7" data-name="&lt;Path&gt;" class="cls-2" d="M105.37,369a52.77,52.77,0,0,0,33-15.61c15-15.09,18-37.4,11.51-55.4H130.35" transform="translate(-16.39 -228.79)"/></g><path id="_Path_8" data-name="&lt;Path&gt;" class="cls-2" d="M63.93,317.92a34.25,34.25,0,1,1,9.69,19.36" transform="translate(-16.39 -228.79)"/></g></svg>